<svg width="35" height="35" viewBox="0 0 35 35" fill="none" xmlns="http://www.w3.org/2000/svg">
<circle cx="17.5" cy="17.5" r="17.5" fill="#8ADF4A"/>
<g clip-path="url(#clip0_1_78)">
<path d="M26.5056 21.1782L26.5095 21.174C24.865 19.763 22.8982 18.7583 20.7464 18.2878C21.4802 17.5328 21.9375 16.4798 21.9375 15.3125C22.4035 15.3125 22.7812 14.9138 22.7812 14.4219V13.8281C22.7812 13.5651 22.6713 13.3315 22.5 13.1685V10.5625C22.5 8.59511 20.9888 7 19.125 7H16.875C15.0112 7 13.5 8.59511 13.5 10.5625V13.1685C13.3287 13.3315 13.2188 13.5651 13.2188 13.8281V14.4219C13.2188 14.9138 13.5965 15.3125 14.0625 15.3125C14.0625 16.4798 14.5198 17.5328 15.2539 18.2878C13.1018 18.7586 11.1347 19.763 9.4905 21.174L9.49444 21.1782C9.189 21.5006 9 21.9459 9 22.4375V24.8125C9 25.4689 9.50316 26 10.125 26H25.875C26.4968 26 27 25.4689 27 24.8125V22.4375C27 21.9459 26.811 21.5006 26.5056 21.1782ZM14.625 15.3125V15.0156C14.625 14.8515 14.4993 14.7188 14.3438 14.7188H14.0625C13.907 14.7188 13.7812 14.586 13.7812 14.4219V13.8281C13.7812 13.664 13.907 13.5312 14.0625 13.5312H14.3438C14.4993 13.5312 14.625 13.3985 14.625 13.2344V12.9375V12.6406C14.625 11.9848 15.1287 11.4531 15.75 11.4531C16.3373 11.4531 16.8542 11.1361 17.1562 10.6554C17.4583 11.1361 17.9752 11.4531 18.5625 11.4531H20.25C20.8713 11.4531 21.375 11.9848 21.375 12.6406V12.9375V13.2344C21.375 13.3985 21.5007 13.5312 21.6562 13.5312H21.9375C22.093 13.5312 22.2188 13.664 22.2188 13.8281V14.4219C22.2188 14.586 22.093 14.7188 21.9375 14.7188H21.6562C21.5007 14.7188 21.375 14.8515 21.375 15.0156V15.3125C21.375 17.2799 19.8638 18.875 18 18.875C16.1362 18.875 14.625 17.2799 14.625 15.3125ZM15.8302 18.7794C16.4526 19.2143 17.1976 19.4688 18 19.4688C18.8024 19.4688 19.5474 19.2143 20.1698 18.7794C20.6367 18.8628 21.0971 18.9664 21.5457 19.1012C20.6311 20.0575 19.3812 20.6562 17.9924 20.6562C16.6053 20.6562 15.3568 20.0592 14.4427 19.1048C14.895 18.9685 15.3591 18.8634 15.8302 18.7794Z" fill="#0E1508"/>
<path d="M15.901 13.4903C16.0346 13.566 16.2028 13.5105 16.2793 13.3727C16.2872 13.3588 16.3631 13.2344 16.5932 13.2344C16.8204 13.2344 16.9014 13.3638 16.9057 13.3703C16.9557 13.4728 17.0542 13.5312 17.156 13.5312C17.1993 13.5312 17.2434 13.5209 17.2845 13.4983C17.4226 13.4232 17.4769 13.2442 17.4057 13.0984C17.3227 12.9283 17.0581 12.6406 16.5932 12.6406C16.1176 12.6406 15.8569 12.9325 15.7776 13.1049C15.7117 13.2483 15.7677 13.4152 15.901 13.4903Z" fill="#0E1508"/>
<path d="M18.7141 13.4903C18.8477 13.566 19.0159 13.5105 19.0924 13.3727C19.1002 13.3588 19.1762 13.2344 19.4062 13.2344C19.6335 13.2344 19.7145 13.3638 19.7187 13.3703C19.7688 13.4728 19.8672 13.5312 19.969 13.5312C20.0123 13.5312 20.0565 13.5209 20.0975 13.4983C20.2356 13.4232 20.2899 13.2442 20.2188 13.0984C20.1358 12.9283 19.8711 12.6406 19.4062 12.6406C18.9306 12.6406 18.6699 12.9325 18.5906 13.1049C18.5248 13.2483 18.5808 13.4152 18.7141 13.4903Z" fill="#0E1508"/>
</g>
<defs>
<clipPath id="clip0_1_78">
<rect width="18" height="19" fill="white" transform="translate(9 7)"/>
</clipPath>
</defs>
</svg>
